<?xml version="1.0" encoding="UTF-8" standalone="no"?>
<!DOCTYPE svg PUBLIC "-//W3C//DTD SVG 1.1//EN"
 "http://www.w3.org/Graphics/SVG/1.1/DTD/svg11.dtd">
<!-- Generated by graphviz version 2.36.0 (20140111.2315)
 -->
<!-- Title: controllers_diagram Pages: 1 -->
<svg width="510pt" height="451pt"
 viewBox="0.00 0.00 510.00 451.00" xmlns="http://www.w3.org/2000/svg" xmlns:xlink="http://www.w3.org/1999/xlink">
<g id="graph0" class="graph" transform="scale(1 1) rotate(0) translate(4 447)">
<title>controllers_diagram</title>
<polygon fill="none" stroke="none" points="-4,4 -4,-447 506,-447 506,4 -4,4"/>
<!-- _diagram_info -->
<g id="node1" class="node"><title>_diagram_info</title>
<text text-anchor="start" x="296" y="-95.6" font-family="Times,serif" font-size="13.00">Controllers diagram</text>
<text text-anchor="start" x="296" y="-81.6" font-family="Times,serif" font-size="13.00">Date: Nov 03 2017 &#45; 09:09</text>
<text text-anchor="start" x="296" y="-67.6" font-family="Times,serif" font-size="13.00">Migration version: 20171026170753</text>
<text text-anchor="start" x="296" y="-53.6" font-family="Times,serif" font-size="13.00">Generated by RailRoady 1.5.3</text>
<text text-anchor="start" x="296" y="-39.6" font-family="Times,serif" font-size="13.00">http://railroady.prestonlee.com</text>
</g>
<!-- BreatheController -->
<g id="node2" class="node"><title>BreatheController</title>
<path fill="none" stroke="black" d="M12,-320.5C12,-320.5 102,-320.5 102,-320.5 108,-320.5 114,-326.5 114,-332.5 114,-332.5 114,-401.5 114,-401.5 114,-407.5 108,-413.5 102,-413.5 102,-413.5 12,-413.5 12,-413.5 6,-413.5 0,-407.5 0,-401.5 0,-401.5 0,-332.5 0,-332.5 0,-326.5 6,-320.5 12,-320.5"/>
<text text-anchor="middle" x="57" y="-398.3" font-family="Times,serif" font-size="14.00">BreatheController</text>
<polyline fill="none" stroke="black" points="0,-390.5 114,-390.5 "/>
<text text-anchor="start" x="8" y="-375.3" font-family="Times,serif" font-size="14.00">index</text>
<polyline fill="none" stroke="black" points="0,-367.5 114,-367.5 "/>
<polyline fill="none" stroke="black" points="0,-343.5 114,-343.5 "/>
<text text-anchor="start" x="8" y="-328.3" font-family="Times,serif" font-size="14.00">_layout</text>
</g>
<!-- ApplicationController -->
<g id="node3" class="node"><title>ApplicationController</title>
<path fill="none" stroke="black" d="M300,-144.5C300,-144.5 412,-144.5 412,-144.5 418,-144.5 424,-150.5 424,-156.5 424,-156.5 424,-255.5 424,-255.5 424,-261.5 418,-267.5 412,-267.5 412,-267.5 300,-267.5 300,-267.5 294,-267.5 288,-261.5 288,-255.5 288,-255.5 288,-156.5 288,-156.5 288,-150.5 294,-144.5 300,-144.5"/>
<text text-anchor="middle" x="356" y="-252.3" font-family="Times,serif" font-size="14.00">ApplicationController</text>
<polyline fill="none" stroke="black" points="288,-244.5 424,-244.5 "/>
<text text-anchor="start" x="296" y="-229.3" font-family="Times,serif" font-size="14.00">current_user</text>
<polyline fill="none" stroke="black" points="288,-221.5 424,-221.5 "/>
<polyline fill="none" stroke="black" points="288,-197.5 424,-197.5 "/>
<text text-anchor="start" x="296" y="-182.3" font-family="Times,serif" font-size="14.00">_layout</text>
<text text-anchor="start" x="296" y="-167.3" font-family="Times,serif" font-size="14.00">mobile_device?</text>
<text text-anchor="start" x="296" y="-152.3" font-family="Times,serif" font-size="14.00">prepare_for_mobile</text>
</g>
<!-- CitiesController -->
<g id="node4" class="node"><title>CitiesController</title>
<path fill="none" stroke="black" d="M124,-0.5C124,-0.5 240,-0.5 240,-0.5 246,-0.5 252,-6.5 252,-12.5 252,-12.5 252,-216.5 252,-216.5 252,-222.5 246,-228.5 240,-228.5 240,-228.5 124,-228.5 124,-228.5 118,-228.5 112,-222.5 112,-216.5 112,-216.5 112,-12.5 112,-12.5 112,-6.5 118,-0.5 124,-0.5"/>
<text text-anchor="middle" x="182" y="-213.3" font-family="Times,serif" font-size="14.00">CitiesController</text>
<polyline fill="none" stroke="black" points="112,-205.5 252,-205.5 "/>
<text text-anchor="start" x="120" y="-190.3" font-family="Times,serif" font-size="14.00">a_in_b_as_c?</text>
<text text-anchor="start" x="120" y="-175.3" font-family="Times,serif" font-size="14.00">cached_city_data</text>
<text text-anchor="start" x="120" y="-160.3" font-family="Times,serif" font-size="14.00">city_data</text>
<text text-anchor="start" x="120" y="-145.3" font-family="Times,serif" font-size="14.00">city_data_back</text>
<text text-anchor="start" x="120" y="-130.3" font-family="Times,serif" font-size="14.00">create</text>
<text text-anchor="start" x="120" y="-115.3" font-family="Times,serif" font-size="14.00">display_favorite_cities</text>
<text text-anchor="start" x="120" y="-100.3" font-family="Times,serif" font-size="14.00">favorite_city</text>
<text text-anchor="start" x="120" y="-85.3" font-family="Times,serif" font-size="14.00">index</text>
<text text-anchor="start" x="120" y="-70.3" font-family="Times,serif" font-size="14.00">new</text>
<text text-anchor="start" x="120" y="-55.3" font-family="Times,serif" font-size="14.00">show</text>
<polyline fill="none" stroke="black" points="112,-47.5 252,-47.5 "/>
<polyline fill="none" stroke="black" points="112,-23.5 252,-23.5 "/>
<text text-anchor="start" x="120" y="-8.3" font-family="Times,serif" font-size="14.00">_layout</text>
</g>
<!-- SessionsController -->
<g id="node5" class="node"><title>SessionsController</title>
<path fill="none" stroke="black" d="M156,-256.5C156,-256.5 251,-256.5 251,-256.5 257,-256.5 263,-262.5 263,-268.5 263,-268.5 263,-381.5 263,-381.5 263,-387.5 257,-393.5 251,-393.5 251,-393.5 156,-393.5 156,-393.5 150,-393.5 144,-387.5 144,-381.5 144,-381.5 144,-268.5 144,-268.5 144,-262.5 150,-256.5 156,-256.5"/>
<text text-anchor="middle" x="203.5" y="-378.3" font-family="Times,serif" font-size="14.00">SessionsController</text>
<polyline fill="none" stroke="black" points="144,-370.5 263,-370.5 "/>
<text text-anchor="start" x="152" y="-355.3" font-family="Times,serif" font-size="14.00">checklogged</text>
<text text-anchor="start" x="152" y="-340.3" font-family="Times,serif" font-size="14.00">create</text>
<text text-anchor="start" x="152" y="-325.3" font-family="Times,serif" font-size="14.00">create_dummy</text>
<text text-anchor="start" x="152" y="-310.3" font-family="Times,serif" font-size="14.00">destroy</text>
<polyline fill="none" stroke="black" points="144,-302.5 263,-302.5 "/>
<text text-anchor="start" x="152" y="-287.3" font-family="Times,serif" font-size="14.00">auth_hash</text>
<polyline fill="none" stroke="black" points="144,-279.5 263,-279.5 "/>
<text text-anchor="start" x="152" y="-264.3" font-family="Times,serif" font-size="14.00">_layout</text>
</g>
<!-- MarkersController -->
<g id="node6" class="node"><title>MarkersController</title>
<path fill="none" stroke="black" d="M380,-304.5C380,-304.5 474,-304.5 474,-304.5 480,-304.5 486,-310.5 486,-316.5 486,-316.5 486,-430.5 486,-430.5 486,-436.5 480,-442.5 474,-442.5 474,-442.5 380,-442.5 380,-442.5 374,-442.5 368,-436.5 368,-430.5 368,-430.5 368,-316.5 368,-316.5 368,-310.5 374,-304.5 380,-304.5"/>
<text text-anchor="middle" x="427" y="-427.3" font-family="Times,serif" font-size="14.00">MarkersController</text>
<polyline fill="none" stroke="black" points="368,-419.5 486,-419.5 "/>
<text text-anchor="start" x="376" y="-404.3" font-family="Times,serif" font-size="14.00">create</text>
<text text-anchor="start" x="376" y="-389.3" font-family="Times,serif" font-size="14.00">show</text>
<polyline fill="none" stroke="black" points="368,-381.5 486,-381.5 "/>
<polyline fill="none" stroke="black" points="368,-357.5 486,-357.5 "/>
<text text-anchor="start" x="376" y="-342.3" font-family="Times,serif" font-size="14.00">_layout</text>
<text text-anchor="start" x="376" y="-327.3" font-family="Times,serif" font-size="14.00">bound_params</text>
<text text-anchor="start" x="376" y="-312.3" font-family="Times,serif" font-size="14.00">marker_params</text>
</g>
</g>
</svg>
