<?xml version="1.0" encoding="UTF-8" standalone="no"?>
<!DOCTYPE svg PUBLIC "-//W3C//DTD SVG 1.1//EN"
 "http://www.w3.org/Graphics/SVG/1.1/DTD/svg11.dtd">
<!-- Generated by graphviz version 2.36.0 (20140111.2315)
 -->
<!-- Title: models_diagram Pages: 1 -->
<svg width="552pt" height="544pt"
 viewBox="0.00 0.00 552.00 544.00" xmlns="http://www.w3.org/2000/svg" xmlns:xlink="http://www.w3.org/1999/xlink">
<g id="graph0" class="graph" transform="scale(1 1) rotate(0) translate(4 540)">
<title>models_diagram</title>
<polygon fill="none" stroke="none" points="-4,4 -4,-540 548,-540 548,4 -4,4"/>
<!-- _diagram_info -->
<g id="node1" class="node"><title>_diagram_info</title>
<text text-anchor="start" x="7" y="-416.6" font-family="Times,serif" font-size="13.00">Models diagram</text>
<text text-anchor="start" x="7" y="-402.6" font-family="Times,serif" font-size="13.00">Date: Nov 03 2017 &#45; 09:09</text>
<text text-anchor="start" x="7" y="-388.6" font-family="Times,serif" font-size="13.00">Migration version: 20171026170753</text>
<text text-anchor="start" x="7" y="-374.6" font-family="Times,serif" font-size="13.00">Generated by RailRoady 1.5.3</text>
<text text-anchor="start" x="7" y="-360.6" font-family="Times,serif" font-size="13.00">http://railroady.prestonlee.com</text>
</g>
<!-- City -->
<g id="node2" class="node"><title>City</title>
<path fill="none" stroke="black" d="M258,-0.5C258,-0.5 368,-0.5 368,-0.5 374,-0.5 380,-6.5 380,-12.5 380,-12.5 380,-199.5 380,-199.5 380,-205.5 374,-211.5 368,-211.5 368,-211.5 258,-211.5 258,-211.5 252,-211.5 246,-205.5 246,-199.5 246,-199.5 246,-12.5 246,-12.5 246,-6.5 252,-0.5 258,-0.5"/>
<text text-anchor="middle" x="313" y="-196.3" font-family="Times,serif" font-size="14.00">City</text>
<polyline fill="none" stroke="black" points="246,-188.5 380,-188.5 "/>
<text text-anchor="start" x="254" y="-173.3" font-family="Times,serif" font-size="14.00">id :INTEGER</text>
<text text-anchor="start" x="254" y="-158.3" font-family="Times,serif" font-size="14.00">name :varchar</text>
<text text-anchor="start" x="254" y="-143.3" font-family="Times,serif" font-size="14.00">state :varchar</text>
<text text-anchor="start" x="254" y="-128.3" font-family="Times,serif" font-size="14.00">country :varchar</text>
<text text-anchor="start" x="254" y="-113.3" font-family="Times,serif" font-size="14.00">location_key :varchar</text>
<text text-anchor="start" x="254" y="-98.3" font-family="Times,serif" font-size="14.00">zip :varchar</text>
<text text-anchor="start" x="254" y="-83.3" font-family="Times,serif" font-size="14.00">daily_data :text</text>
<text text-anchor="start" x="254" y="-68.3" font-family="Times,serif" font-size="14.00">created_at :datetime</text>
<text text-anchor="start" x="254" y="-53.3" font-family="Times,serif" font-size="14.00">updated_at :datetime</text>
<text text-anchor="start" x="254" y="-38.3" font-family="Times,serif" font-size="14.00">lat :varchar</text>
<text text-anchor="start" x="254" y="-23.3" font-family="Times,serif" font-size="14.00">lng :varchar</text>
<text text-anchor="start" x="254" y="-8.3" font-family="Times,serif" font-size="14.00">user_id :integer</text>
</g>
<!-- Marker -->
<g id="node3" class="node"><title>Marker</title>
<path fill="none" stroke="black" d="M425.5,-249C425.5,-249 532.5,-249 532.5,-249 538.5,-249 544.5,-255 544.5,-261 544.5,-261 544.5,-523 544.5,-523 544.5,-529 538.5,-535 532.5,-535 532.5,-535 425.5,-535 425.5,-535 419.5,-535 413.5,-529 413.5,-523 413.5,-523 413.5,-261 413.5,-261 413.5,-255 419.5,-249 425.5,-249"/>
<text text-anchor="middle" x="479" y="-519.8" font-family="Times,serif" font-size="14.00">Marker</text>
<polyline fill="none" stroke="black" points="413.5,-512 544.5,-512 "/>
<text text-anchor="start" x="421.5" y="-496.8" font-family="Times,serif" font-size="14.00">id :INTEGER</text>
<text text-anchor="start" x="421.5" y="-481.8" font-family="Times,serif" font-size="14.00">lng :varchar</text>
<text text-anchor="start" x="421.5" y="-466.8" font-family="Times,serif" font-size="14.00">lat :varchar</text>
<text text-anchor="start" x="421.5" y="-451.8" font-family="Times,serif" font-size="14.00">title :varchar</text>
<text text-anchor="start" x="421.5" y="-436.8" font-family="Times,serif" font-size="14.00">dog :boolean</text>
<text text-anchor="start" x="421.5" y="-421.8" font-family="Times,serif" font-size="14.00">cat :boolean</text>
<text text-anchor="start" x="421.5" y="-406.8" font-family="Times,serif" font-size="14.00">mold :boolean</text>
<text text-anchor="start" x="421.5" y="-391.8" font-family="Times,serif" font-size="14.00">bees :boolean</text>
<text text-anchor="start" x="421.5" y="-376.8" font-family="Times,serif" font-size="14.00">perfume :boolean</text>
<text text-anchor="start" x="421.5" y="-361.8" font-family="Times,serif" font-size="14.00">oak :boolean</text>
<text text-anchor="start" x="421.5" y="-346.8" font-family="Times,serif" font-size="14.00">dust :boolean</text>
<text text-anchor="start" x="421.5" y="-331.8" font-family="Times,serif" font-size="14.00">smoke :boolean</text>
<text text-anchor="start" x="421.5" y="-316.8" font-family="Times,serif" font-size="14.00">gluten :boolean</text>
<text text-anchor="start" x="421.5" y="-301.8" font-family="Times,serif" font-size="14.00">peanut :boolean</text>
<text text-anchor="start" x="421.5" y="-286.8" font-family="Times,serif" font-size="14.00">user_id :integer</text>
<text text-anchor="start" x="421.5" y="-271.8" font-family="Times,serif" font-size="14.00">created_at :datetime</text>
<text text-anchor="start" x="421.5" y="-256.8" font-family="Times,serif" font-size="14.00">updated_at :datetime</text>
</g>
<!-- User -->
<g id="node4" class="node"><title>User</title>
<path fill="none" stroke="black" d="M243,-264C243,-264 383,-264 383,-264 389,-264 395,-270 395,-276 395,-276 395,-508 395,-508 395,-514 389,-520 383,-520 383,-520 243,-520 243,-520 237,-520 231,-514 231,-508 231,-508 231,-276 231,-276 231,-270 237,-264 243,-264"/>
<text text-anchor="middle" x="313" y="-504.8" font-family="Times,serif" font-size="14.00">User</text>
<polyline fill="none" stroke="black" points="231,-497 395,-497 "/>
<text text-anchor="start" x="239" y="-481.8" font-family="Times,serif" font-size="14.00">id :INTEGER</text>
<text text-anchor="start" x="239" y="-466.8" font-family="Times,serif" font-size="14.00">latitude :float</text>
<text text-anchor="start" x="239" y="-451.8" font-family="Times,serif" font-size="14.00">longitude :float</text>
<text text-anchor="start" x="239" y="-436.8" font-family="Times,serif" font-size="14.00">address :varchar</text>
<text text-anchor="start" x="239" y="-421.8" font-family="Times,serif" font-size="14.00">description :text</text>
<text text-anchor="start" x="239" y="-406.8" font-family="Times,serif" font-size="14.00">title :varchar</text>
<text text-anchor="start" x="239" y="-391.8" font-family="Times,serif" font-size="14.00">created_at :datetime</text>
<text text-anchor="start" x="239" y="-376.8" font-family="Times,serif" font-size="14.00">updated_at :datetime</text>
<text text-anchor="start" x="239" y="-361.8" font-family="Times,serif" font-size="14.00">provider :varchar</text>
<text text-anchor="start" x="239" y="-346.8" font-family="Times,serif" font-size="14.00">uid :varchar</text>
<text text-anchor="start" x="239" y="-331.8" font-family="Times,serif" font-size="14.00">oauth_token :varchar</text>
<text text-anchor="start" x="239" y="-316.8" font-family="Times,serif" font-size="14.00">oauth_expires_at :datetime</text>
<text text-anchor="start" x="239" y="-301.8" font-family="Times,serif" font-size="14.00">name :varchar</text>
<text text-anchor="start" x="239" y="-286.8" font-family="Times,serif" font-size="14.00">searches :varchar</text>
<text text-anchor="start" x="239" y="-271.8" font-family="Times,serif" font-size="14.00">email :varchar</text>
</g>
<!-- User&#45;&gt;City -->
<g id="edge1" class="edge"><title>User&#45;&gt;City</title>
<path fill="none" stroke="#dac480" d="M313,-255.765C313,-244.462 313,-233.103 313,-221.973"/>
<ellipse fill="none" stroke="#dac480" cx="313" cy="-259.952" rx="4" ry="4"/>
<polygon fill="#dac480" stroke="#dac480" points="313,-221.825 317.5,-211.825 313,-216.825 313,-211.825 313,-211.825 313,-211.825 313,-216.825 308.5,-211.825 313,-221.825 313,-221.825"/>
</g>
</g>
</svg>
