<?xml version="1.0" encoding="UTF-8" standalone="no"?>
<!DOCTYPE svg PUBLIC "-//W3C//DTD SVG 1.1//EN"
 "http://www.w3.org/Graphics/SVG/1.1/DTD/svg11.dtd">
<!-- Generated by graphviz version 2.36.0 (20140111.2315)
 -->
<!-- Title: models_diagram Pages: 1 -->
<svg width="385pt" height="158pt"
 viewBox="0.00 0.00 385.00 158.00" xmlns="http://www.w3.org/2000/svg" xmlns:xlink="http://www.w3.org/1999/xlink">
<g id="graph0" class="graph" transform="scale(1 1) rotate(0) translate(4 154)">
<title>models_diagram</title>
<polygon fill="none" stroke="none" points="-4,4 -4,-154 381,-154 381,4 -4,4"/>
<!-- _diagram_info -->
<g id="node1" class="node"><title>_diagram_info</title>
<text text-anchor="start" x="7" y="-135.6" font-family="Times,serif" font-size="13.00">Models diagram</text>
<text text-anchor="start" x="7" y="-121.6" font-family="Times,serif" font-size="13.00">Date: Nov 03 2017 &#45; 09:09</text>
<text text-anchor="start" x="7" y="-107.6" font-family="Times,serif" font-size="13.00">Migration version: 20171026170753</text>
<text text-anchor="start" x="7" y="-93.6" font-family="Times,serif" font-size="13.00">Generated by RailRoady 1.5.3</text>
<text text-anchor="start" x="7" y="-79.6" font-family="Times,serif" font-size="13.00">http://railroady.prestonlee.com</text>
</g>
<!-- City -->
<g id="node2" class="node"><title>City</title>
<ellipse fill="none" stroke="black" cx="258" cy="-18" rx="27" ry="18"/>
<text text-anchor="middle" x="258" y="-14.3" font-family="Times,serif" font-size="14.00">City</text>
</g>
<!-- Marker -->
<g id="node3" class="node"><title>Marker</title>
<ellipse fill="none" stroke="black" cx="340" cy="-111" rx="37.0701" ry="18"/>
<text text-anchor="middle" x="340" y="-107.3" font-family="Times,serif" font-size="14.00">Marker</text>
</g>
<!-- User -->
<g id="node4" class="node"><title>User</title>
<ellipse fill="none" stroke="black" cx="258" cy="-111" rx="26.949" ry="18"/>
<text text-anchor="middle" x="258" y="-107.3" font-family="Times,serif" font-size="14.00">User</text>
</g>
<!-- User&#45;&gt;City -->
<g id="edge1" class="edge"><title>User&#45;&gt;City</title>
<path fill="none" stroke="#6bdb65" d="M258,-84.7285C258,-72.7246 258,-58.3622 258,-46.1291"/>
<ellipse fill="none" stroke="#6bdb65" cx="258" cy="-88.8836" rx="4" ry="4"/>
<polygon fill="#6bdb65" stroke="#6bdb65" points="258,-46.0397 262.5,-36.0396 258,-41.0397 258,-36.0397 258,-36.0397 258,-36.0397 258,-41.0397 253.5,-36.0397 258,-46.0397 258,-46.0397"/>
</g>
</g>
</svg>
